# xmcd
#
# Track frame offsets:
# 150
# 16828
# 27460
# 41867
# 56246
# 67985
# 80699
# 97489
# 107468
# 127290
# 136164
# 151175
# 162024
# 171711
#
# Disc length: 2444 seconds
#
#
# Revision: 0
# Processed by: cddbd v1.5.2PL0 Copyright (c) Steve Scherf et al.
# Submitted via: Nero 7, 11, 10, 0 
#
DISCID=c6098a0e
DTITLE=Emil and The Ecstatics - Bit By Bit
DYEAR=2009
DGENRE=Blues
TTITLE0=Bit By Bit
TTITLE1=Doer Not A Talker
TTITLE2=In The Search Of A Woman
TTITLE3=All Day Everyday
TTITLE4=You Raised Hell
TTITLE5=The Spook
TTITLE6=Highway 4
TTITLE7=Stop!
TTITLE8=Cryin' Won't Help You
TTITLE9=Lucky Girl
TTITLE10=Easy Cure
TTITLE11=Regreat Song
TTITLE12=The Hula
TTITLE13=Terms Of Purchase
EXTD=
EXTT0=Bit By Bit
EXTT1=Doer Not A Talker
EXTT2=In The Search Of A Woman
EXTT3=All Day Everyday
EXTT4=You Raised Hell
EXTT5=The Spook
EXTT6=Highway 4
EXTT7=Stop!
EXTT8=Cryin' Won't Help You
EXTT9=Lucky Girl
EXTT10=Easy Cure
EXTT11=Regreat Song
EXTT12=The Hula
EXTT13=Terms Of Purchase
PLAYORDER=
